<svg xmlns="http://www.w3.org/2000/svg" width="250" height="100" viewBox="0 0 250 100">
  <defs>
    <style>
      .cls-1 {
        fill: #fff;
      }

      .cls-1, .cls-2 {
        fill-rule: evenodd;
      }

      .cls-2 {
        fill: #6af565;
      }
    </style>
  </defs>
  <path id="Who" class="cls-1" d="M102.187,54.33L98.453,80.346l-5.6-26.017H78.737l-5.6,26.017L69.4,54.33H55.462l9.45,41.3h16.1L85.8,72.18l4.783,23.45h16.1l9.45-41.3H102.187ZM143.836,62.5a11.919,11.919,0,0,0-6.037,1.458A15.013,15.013,0,0,0,133,68V52H121V96h12V78c0-1.555,1.153-2.6,1.97-3.516a4.824,4.824,0,0,1,6.737,0,5.278,5.278,0,0,1,1.254,3.7V95.63h12.892V76.555q0-6.475-3.179-10.267a10.908,10.908,0,0,0-8.838-3.792h0Zm33.25,33.542A19.211,19.211,0,0,0,186.011,94a15.046,15.046,0,0,0,6.212-5.862,17.347,17.347,0,0,0,2.246-8.954,17.352,17.352,0,0,0-2.246-8.954,15.058,15.058,0,0,0-6.212-5.862,20.529,20.529,0,0,0-17.85,0,15.054,15.054,0,0,0-6.213,5.862A17.352,17.352,0,0,0,159.7,79.18a17.347,17.347,0,0,0,2.246,8.954A15.042,15.042,0,0,0,168.161,94a19.2,19.2,0,0,0,8.925,2.042h0Zm0-11.2a3.813,3.813,0,0,1-3.063-1.429,6.453,6.453,0,0,1-1.2-4.229,6.349,6.349,0,0,1,1.225-4.229,3.934,3.934,0,0,1,6.067,0,6.344,6.344,0,0,1,1.225,4.229,6.342,6.342,0,0,1-1.225,4.229,3.838,3.838,0,0,1-3.033,1.429h0Z"/>
  <path id="Wiki" class="cls-1" d="M127.024,17.323a7.8,7.8,0,0,0,5.367-1.808,5.819,5.819,0,0,0,2.042-4.55,5.972,5.972,0,0,0-2.042-4.637,7.719,7.719,0,0,0-5.367-1.838A7.8,7.8,0,0,0,121.6,6.327a5.971,5.971,0,0,0-2.041,4.637,5.818,5.818,0,0,0,2.041,4.55,7.881,7.881,0,0,0,5.425,1.808h0ZM121,20V53h12V20H121Z"/>
  <path id="Wiki_copy_2" data-name="Wiki copy 2" class="cls-2" d="M175.79,52.848l-12.6-16.333L175.5,19.948h-15.05l-8.225,12.308V9.681h-12.95V52.848h12.95V39.723l8.108,13.125H175.79Zm9.45-35.525a7.8,7.8,0,0,0,5.367-1.808,5.819,5.819,0,0,0,2.042-4.55,5.972,5.972,0,0,0-2.042-4.637A7.719,7.719,0,0,0,185.24,4.49a7.8,7.8,0,0,0-5.425,1.838,5.968,5.968,0,0,0-2.041,4.637,5.815,5.815,0,0,0,2.041,4.55,7.879,7.879,0,0,0,5.425,1.808h0Zm-6.533,2.625v32.9h12.95v-32.9h-12.95Z"/>
  <path id="Wiki_copy" data-name="Wiki copy" class="cls-2" d="M101.883,11.548L98.15,37.565l-5.6-26.017H78.433l-5.6,26.017L69.1,11.548H55.158l9.45,41.3h16.1L85.492,29.4l4.783,23.45h16.1l9.45-41.3H101.883Z"/>
</svg>